<svg width="83" height="83" viewBox="0 0 83 83" fill="none" xmlns="http://www.w3.org/2000/svg">
<g clip-path="url(#clip0_219_457)">
<path d="M41.33 0C33.1537 0 25.1611 2.42455 18.3627 6.96705C11.5644 11.5095 6.26576 17.966 3.13683 25.5199C0.00790215 33.0738 -0.810768 41.3859 0.784345 49.405C2.37946 57.4242 6.31671 64.7903 12.0982 70.5718C17.8797 76.3533 25.2458 80.2906 33.265 81.8857C41.2841 83.4808 49.5962 82.6621 57.1501 79.5332C64.704 76.4043 71.1605 71.1056 75.703 64.3073C80.2455 57.5089 82.67 49.5163 82.67 41.34C82.67 35.9112 81.6007 30.5355 79.5232 25.5199C77.4457 20.5043 74.4006 15.947 70.5618 12.1082C66.723 8.26943 62.1657 5.22435 57.1501 3.14682C52.1345 1.06929 46.7589 0 41.33 0ZM42 42.7L37.7 57.21H60.7C60.8829 57.2104 61.0632 57.2534 61.2267 57.3355C61.3901 57.4176 61.5323 57.5366 61.6418 57.683C61.7514 57.8294 61.8255 57.9994 61.8581 58.1793C61.8908 58.3593 61.8812 58.5444 61.83 58.72L59.83 65.61C59.7346 65.9392 59.5347 66.2284 59.2605 66.434C58.9863 66.6396 58.6527 66.7505 58.31 66.75H23.18L29.12 46.69L22.55 48.69L24 44L30.58 42L38.92 13.82C39.0117 13.4898 39.2089 13.1986 39.4815 12.991C39.7542 12.7833 40.0873 12.6706 40.43 12.67H49.33C49.5126 12.6693 49.6929 12.7111 49.8567 12.792C50.0204 12.8728 50.1632 12.9906 50.2737 13.136C50.3842 13.2814 50.4595 13.4505 50.4935 13.6299C50.5276 13.8093 50.5195 13.9942 50.47 14.17L43.47 38L50.04 36L48.63 40.77L42 42.7Z" fill="white"/>
</g>
<defs>
<clipPath id="clip0_219_457">
<rect width="82.67" height="82.67" fill="white"/>
</clipPath>
</defs>
</svg>
