<svg width="30" height="30" viewBox="0 0 30 30" fill="none" xmlns="http://www.w3.org/2000/svg">
<path d="M0 15C0 23.2843 6.71573 30 15 30C23.2843 30 30 23.2843 30 15C30 6.71573 23.2843 0 15 0C6.71573 0 0 6.71573 0 15Z" fill="#5A64D8"/>
<path d="M20.4526 9.9975C19.4551 9.5325 18.3751 9.195 17.2501 9C17.2402 8.99969 17.2304 9.00154 17.2213 9.00543C17.2123 9.00931 17.2042 9.01514 17.1976 9.0225C17.0626 9.27 16.9051 9.5925 16.8001 9.84C15.6068 9.66 14.3933 9.66 13.2001 9.84C13.0951 9.585 12.9376 9.27 12.7951 9.0225C12.7876 9.0075 12.7651 9 12.7426 9C11.6176 9.195 10.5451 9.5325 9.54009 9.9975C9.53259 9.9975 9.52509 10.005 9.51759 10.0125C7.47759 13.065 6.91509 16.035 7.19259 18.975C7.19259 18.99 7.20009 19.005 7.21509 19.0125C8.56509 20.0025 9.86259 20.6025 11.1451 21C11.1676 21.0075 11.1901 21 11.1976 20.985C11.4976 20.5725 11.7676 20.1375 12.0001 19.68C12.0151 19.65 12.0001 19.62 11.9701 19.6125C11.5426 19.4475 11.1376 19.2525 10.7401 19.0275C10.7101 19.0125 10.7101 18.9675 10.7326 18.945C10.8151 18.885 10.8976 18.8175 10.9801 18.7575C10.9951 18.7425 11.0176 18.7425 11.0326 18.75C13.6126 19.9275 16.3951 19.9275 18.9451 18.75C18.9601 18.7425 18.9826 18.7425 18.9976 18.7575C19.0801 18.825 19.1626 18.885 19.2451 18.9525C19.2751 18.975 19.2751 19.02 19.2376 19.035C18.8476 19.2675 18.4351 19.455 18.0076 19.62C17.9776 19.6275 17.9701 19.665 17.9776 19.6875C18.2176 20.145 18.4876 20.58 18.7801 20.9925C18.8026 21 18.8251 21.0075 18.8476 21C20.1376 20.6025 21.4351 20.0025 22.7851 19.0125C22.8001 19.005 22.8076 18.99 22.8076 18.975C23.1376 15.5775 22.2601 12.63 20.4826 10.0125C20.4751 10.005 20.4676 9.9975 20.4526 9.9975ZM12.3901 17.1825C11.6176 17.1825 10.9726 16.47 10.9726 15.5925C10.9726 14.715 11.6026 14.0025 12.3901 14.0025C13.1851 14.0025 13.8151 14.7225 13.8076 15.5925C13.8076 16.47 13.1776 17.1825 12.3901 17.1825ZM17.6176 17.1825C16.8451 17.1825 16.2001 16.47 16.2001 15.5925C16.2001 14.715 16.8301 14.0025 17.6176 14.0025C18.4126 14.0025 19.0426 14.7225 19.0351 15.5925C19.0351 16.47 18.4126 17.1825 17.6176 17.1825Z" fill="#F7F8F9"/>
</svg>
