<?xml version="1.0" encoding="UTF-8" standalone="no"?>
<!-- Generator: Adobe Illustrator 26.0.3, SVG Export Plug-In . SVG Version: 6.00 Build 0)  -->

<svg
   version="1.0"
   id="katman_1"
   x="0px"
   y="0px"
   viewBox="0 0 327.35294 327.35464"
   xml:space="preserve"
   sodipodi:docname="Instagram.svg"
   width="327.35294"
   height="327.35464"
   inkscape:version="1.3.2 (091e20e, 2023-11-25)"
   xmlns:inkscape="http://www.inkscape.org/namespaces/inkscape"
   xmlns:sodipodi="http://sodipodi.sourceforge.net/DTD/sodipodi-0.dtd"
   xmlns="http://www.w3.org/2000/svg"
   xmlns:svg="http://www.w3.org/2000/svg"><defs
   id="defs3" /><sodipodi:namedview
   id="namedview3"
   pagecolor="#ffffff"
   bordercolor="#000000"
   borderopacity="0.25"
   inkscape:showpageshadow="2"
   inkscape:pageopacity="0.0"
   inkscape:pagecheckerboard="0"
   inkscape:deskcolor="#d1d1d1"
   inkscape:document-units="in"
   inkscape:zoom="1.0583333"
   inkscape:cx="163.93701"
   inkscape:cy="162.99213"
   inkscape:window-width="1392"
   inkscape:window-height="1146"
   inkscape:window-x="0"
   inkscape:window-y="25"
   inkscape:window-maximized="0"
   inkscape:current-layer="katman_1" />
<style
   type="text/css"
   id="style1">
	.st0{fill:url(#instagram_00000075121230425124726760000009790490330523015349_);}
</style>
<linearGradient
   id="instagram_00000108998754355397778860000008873818705082645121_"
   gradientUnits="userSpaceOnUse"
   x1="17.500799"
   y1="446.26169"
   x2="10.5286"
   y2="437.00281"
   gradientTransform="matrix(32.0688,0,0,-32.0693,-287.7143,14329.078)">
	<stop
   offset="0"
   style="stop-color:#7D4292"
   id="stop1" />
	<stop
   offset="0.551"
   style="stop-color:#EC663A"
   id="stop2" />
	<stop
   offset="1"
   style="stop-color:#FBBD3F"
   id="stop3" />
</linearGradient>
<path
   id="instagram"
   style="fill:url(#instagram_00000108998754355397778860000008873818705082645121_)"
   d="m 163.3,327.35294 c -90.2,0 -163.3,-73.1 -163.3,-163.3 0,-43.3 17.2,-84.900001 47.8,-115.500001 63.4,-64.2 166.8,-64.8 231,-1.4 64.2,63.400001 64.8,166.800001 1.4,231.000001 -0.5,0.5 -0.9,0.9 -1.4,1.4 -30.6,30.7 -72.2,48 -115.5,47.8 z m -3,-73.9 c 3.2,0 6.3,0 9.5,0.1 3.2,0.1 6.3,0.1 9.4,0.1 29.5,0 57,-2.4 68.5,-32 4.6,-16.7 6.3,-34 4.9,-51.2 0,-3 0,-6 0,-9.2 0,-3.5 0,-6.8 0,-10 0.2,-30.7 0.3,-51 -15.5,-66.800001 -14.4,-14.4 -33.5,-15.6 -57,-15.6 -3,0 -6.1,0 -9.3,0 -3.4,0 -6.9,0 -10.5,0 -3.1,0 -6.1,0 -9.1,0 -3,0 -6,0 -8.9,0 -31.2,0 -57.9,2.4 -69.4,31.900001 -4.6,16.7 -6.3,34.1 -4.9,51.4 0,2.9 0,6 0,9.1 0,2.5 0,5 0,7.4 v 0.2 c -1.3,17.8 0.4,35.6 4.9,52.8 11.5,29.5 38.3,31.9 69.5,31.9 2.9,0 5.9,0 8.9,0 2.9,0 6,-0.1 9,-0.1 z m 21,-16.5 v 0 c -3.2,0 -6.5,0 -10,-0.1 -3.5,-0.1 -7.2,-0.1 -10.9,-0.1 -73.5,0 -75.6,-2.1 -75.6,-75.7 0,-37.8 1.5,-56.1 10.6,-65.700001 9.1,-9.6 24.8,-9.9 56.8,-9.9 h 2.1 c 4.5,0 8.7,0 12.7,-0.1 4.5,0 8.8,-0.1 12.8,-0.1 23.4,0 36.8,1.6 45.2,10.3 12.5,13.000001 13.3,42.200001 10.6,102.800001 -1.8,35.8 -24.6,38.6 -54.3,38.6 z m -21,-123.2 c -26.2,0 -47.4,21.2 -47.4,47.4 0,26.2 21.2,47.4 47.4,47.4 26.2,0 47.4,-21.2 47.4,-47.4 0,0 0,0 0,0 0,-26.1 -21.2,-47.4 -47.4,-47.4 z m 49.3,-12.9 c -6.1,0 -11.1,5 -11.1,11.1 0,6.1 5,11.1 11.1,11.1 6.1,0 11.1,-5 11.1,-11.1 v 0 c 0,-6.2 -5,-11.1 -11.1,-11.1 z m -49.3,91.1 c -16.2,0.6 -29.9,-12 -30.5,-28.2 0,-0.9 0,-1.7 0,-2.6 -0.1,-7.7 2.6,-15.3 7.6,-21.1 5.8,-6.4 14.2,-9.9 22.9,-9.6 16.2,-0.6 29.9,12 30.5,28.2 0,0.9 0,1.7 0,2.6 0.1,7.7 -2.6,15.3 -7.6,21.1 -5.8,6.4 -14.2,9.9 -22.9,9.6 z" />
</svg>
