<svg width="28" height="28" viewBox="0 0 28 28" fill="none" xmlns="http://www.w3.org/2000/svg">
<path fill-rule="evenodd" clip-rule="evenodd" d="M13.732 27.064C21.0951 27.064 27.064 21.0951 27.064 13.732C27.064 6.36896 21.0951 0.400024 13.732 0.400024C6.36893 0.400024 0.399994 6.36896 0.399994 13.732C0.399994 21.0951 6.36893 27.064 13.732 27.064ZM16.121 7.60006C17.2457 7.79501 18.3254 8.13242 19.3226 8.5973C19.3376 8.5973 19.3451 8.6048 19.3526 8.61229C21.1297 11.2291 22.0069 14.1758 21.677 17.5724C21.677 17.5874 21.6695 17.6024 21.6545 17.6099C20.3049 18.5997 19.0077 19.1995 17.718 19.5969C17.6956 19.6044 17.6731 19.5969 17.6506 19.5894C17.3581 19.177 17.0882 18.7421 16.8483 18.2848C16.8408 18.2623 16.8483 18.2248 16.8783 18.2173C17.3057 18.0523 17.718 17.8649 18.1079 17.6324C18.1454 17.6174 18.1454 17.5724 18.1154 17.55C18.0742 17.5162 18.033 17.4843 17.9917 17.4525C17.9505 17.4206 17.9093 17.3887 17.868 17.355C17.853 17.34 17.8305 17.34 17.8155 17.3475C15.2662 18.5247 12.4844 18.5247 9.9051 17.3475C9.8901 17.34 9.8676 17.34 9.85261 17.355C9.81137 17.385 9.77013 17.4169 9.72889 17.4487C9.68765 17.4806 9.64641 17.5125 9.60517 17.5425C9.58268 17.565 9.58268 17.6099 9.61267 17.6249C10.0101 17.8499 10.415 18.0448 10.8424 18.2098C10.8723 18.2173 10.8873 18.2473 10.8723 18.2773C10.6399 18.7346 10.37 19.1695 10.0701 19.5819C10.0626 19.5969 10.0401 19.6044 10.0176 19.5969C8.7354 19.1995 7.43824 18.5997 6.08859 17.6099C6.0736 17.6024 6.0661 17.5874 6.0661 17.5724C5.78867 14.6332 6.35103 11.664 8.39049 8.61229C8.39799 8.6048 8.40549 8.5973 8.41298 8.5973C9.41772 8.13242 10.4899 7.79501 11.6146 7.60006C11.6371 7.60006 11.6596 7.60756 11.6671 7.62255C11.8096 7.86999 11.9671 8.18491 12.072 8.43984C13.265 8.25989 14.4781 8.25989 15.6711 8.43984C15.7761 8.1924 15.9335 7.86999 16.0685 7.62255C16.0751 7.61519 16.0832 7.60937 16.0922 7.60548C16.1013 7.60159 16.1111 7.59974 16.121 7.60006ZM9.84511 14.1908C9.84511 15.0681 10.4899 15.7804 11.2622 15.7804C12.0495 15.7804 12.6794 15.0681 12.6794 14.1908C12.6869 13.3211 12.057 12.6012 11.2622 12.6012C10.4749 12.6012 9.84511 13.3136 9.84511 14.1908ZM15.0712 14.1908C15.0712 15.0681 15.7161 15.7804 16.4884 15.7804C17.2832 15.7804 17.9055 15.0681 17.9055 14.1908C17.913 13.3211 17.2832 12.6012 16.4884 12.6012C15.7011 12.6012 15.0712 13.3136 15.0712 14.1908Z" fill="white"/>
</svg>
