<svg width="28" height="40" viewBox="0 0 28 40" fill="none" xmlns="http://www.w3.org/2000/svg">
<path fill-rule="evenodd" clip-rule="evenodd" d="M26.2094 35.4268C26.2095 35.4268 26.2089 35.4292 26.207 35.4337C26.2083 35.4291 26.2092 35.4268 26.2094 35.4268ZM26.1677 35.5C26.1175 35.4293 26.0108 35.3085 25.7918 35.1417C25.3032 34.7697 24.486 34.3597 23.3195 33.9841C21.0063 33.2391 17.7017 32.75 13.9734 32.75C10.245 32.75 6.9404 33.2391 4.6272 33.9841C3.46074 34.3597 2.64349 34.7697 2.15493 35.1417C1.93589 35.3085 1.82925 35.4293 1.77905 35.5C1.82925 35.5707 1.93589 35.6915 2.15493 35.8583C2.64349 36.2303 3.46074 36.6403 4.6272 37.0159C6.9404 37.7609 10.245 38.25 13.9734 38.25C17.7017 38.25 21.0063 37.7609 23.3195 37.0159C24.486 36.6403 25.3032 36.2303 25.7918 35.8583C26.0108 35.6915 26.1175 35.5707 26.1677 35.5ZM1.73735 35.4268C1.73752 35.4268 1.73848 35.4291 1.73973 35.4338C1.73781 35.4292 1.73718 35.4268 1.73735 35.4268ZM1.73735 35.5732C1.73718 35.5732 1.73781 35.5708 1.73973 35.5662C1.73848 35.5709 1.73752 35.5732 1.73735 35.5732ZM26.207 35.5662C26.2089 35.5708 26.2095 35.5732 26.2094 35.5732C26.2092 35.5732 26.2083 35.5709 26.207 35.5662ZM13.9734 40C21.6906 40 27.9467 37.9853 27.9467 35.5C27.9467 33.0147 21.6906 31 13.9734 31C6.25609 31 0 33.0147 0 35.5C0 37.9853 6.25609 40 13.9734 40Z" fill="url(#paint0_linear_1_359)"/>
<path d="M13.74 25.5866L24.7451 19.6435L13.74 36L2.78691 19.6435L13.74 25.5866Z" fill="url(#paint1_linear_1_359)"/>
<path d="M2.78691 16.3039L13.74 10.3872L24.7451 16.3302L13.74 1.62227e-05L2.78691 16.3039Z" fill="url(#paint2_linear_1_359)"/>
<defs>
<linearGradient id="paint0_linear_1_359" x1="13.9734" y1="31" x2="13.9734" y2="40" gradientUnits="userSpaceOnUse">
<stop stop-color="#1B1B1B" stop-opacity="0.5"/>
<stop offset="1" stop-color="#53EB45"/>
</linearGradient>
<linearGradient id="paint1_linear_1_359" x1="13.766" y1="36" x2="14.0932" y2="-5.88234" gradientUnits="userSpaceOnUse">
<stop stop-color="#53EB45"/>
<stop offset="1" stop-color="#133706"/>
</linearGradient>
<linearGradient id="paint2_linear_1_359" x1="13.766" y1="36" x2="14.0932" y2="-5.88234" gradientUnits="userSpaceOnUse">
<stop stop-color="#53EB45"/>
<stop offset="1" stop-color="#133706"/>
</linearGradient>
</defs>
</svg>
