<svg width="28" height="28" viewBox="0 0 28 28" fill="none" xmlns="http://www.w3.org/2000/svg">
<path d="M14.3334 0.560059C6.91063 0.560059 0.893433 6.57726 0.893433 14.0001C0.893433 21.4229 6.91063 27.4401 14.3334 27.4401C21.7562 27.4401 27.7734 21.4229 27.7734 14.0001C27.7734 6.57726 21.7562 0.560059 14.3334 0.560059ZM11.0434 19.5707H8.32183V10.8123H11.0434V19.5707ZM9.66583 9.73706C8.80623 9.73706 8.25043 9.12806 8.25043 8.37486C8.25043 7.60626 8.82303 7.01546 9.70083 7.01546C10.5786 7.01546 11.1162 7.60626 11.133 8.37486C11.133 9.12806 10.5786 9.73706 9.66583 9.73706ZM20.9834 19.5707H18.2618V14.7169C18.2618 13.5871 17.867 12.8199 16.8828 12.8199C16.131 12.8199 15.6844 13.3393 15.487 13.8391C15.4142 14.0169 15.396 14.2689 15.396 14.5195V19.5693H12.673V13.6053C12.673 12.5119 12.638 11.5977 12.6016 10.8109H14.9662L15.0908 12.0275H15.1454C15.5038 11.4563 16.3816 10.6135 17.8502 10.6135C19.6408 10.6135 20.9834 11.8133 20.9834 14.3921V19.5707Z" fill="white"/>
</svg>
