<?xml version="1.0" encoding="UTF-8"?>
<!DOCTYPE svg PUBLIC "-//W3C//DTD SVG 1.1//EN" "http://www.w3.org/Graphics/SVG/1.1/DTD/svg11.dtd">
<svg version="1.1" xmlns="http://www.w3.org/2000/svg" xmlns:xlink="http://www.w3.org/1999/xlink" x="0" y="0" width="40" height="40" viewBox="0, 0, 2228, 2228">
  <g id="Layer_1">
    <path d="M1665.44,1582.533 L1612.19,1768.383 C1606.998,1786.591 1590.365,1799.158 1571.423,1799.158 L624.774,1798.841 L784.715,1258.158 L607.54,1312.975 L645.44,1184.433 L822.665,1129.558 L1047.407,370.008 C1052.624,351.792 1069.29,339.258 1088.24,339.292 L1327.957,339.292 C1345.54,339.292 1359.79,353.55 1359.79,371.133 C1359.79,374.108 1359.365,377.075 1358.548,379.933 L1169.39,1021.933 L1346.557,966.875 L1308.665,1095.408 L1131.315,1150.6 L1016.007,1541.833 L1634.79,1541.833 C1652.407,1541.833 1666.682,1556.125 1666.682,1573.741 C1666.673,1576.716 1666.257,1579.675 1665.44,1582.533 M512.965,0 C229.666,0 -0.001,229.658 -0.001,512.967 L-0.001,2227.908 L1714.882,2227.908 C1998.19,2227.908 2227.848,1998.241 2227.848,1714.941 L2227.848,0 L512.965,0 z" fill="#4E7BBE"/>
  </g>
</svg>
