<?xml version="1.0" encoding="UTF-8" standalone="no"?>
<!DOCTYPE svg PUBLIC "-//W3C//DTD SVG 1.1//EN" "http://www.w3.org/Graphics/SVG/1.1/DTD/svg11.dtd">
<svg width="100%" height="35" viewBox="0 0 4120 1250" version="1.1" xmlns="http://www.w3.org/2000/svg" xmlns:xlink="http://www.w3.org/1999/xlink" xml:space="preserve" xmlns:serif="http://www.serif.com/" style="fill-rule:evenodd;clip-rule:evenodd;stroke-linejoin:round;stroke-miterlimit:2;">
    <g transform="matrix(4.16667,0,0,4.16667,-2965.07,-21167.7)">
        <g>
            <g transform="matrix(1,0,0,1,0,4700.69)">
                <path d="M927.369,588.869L920.639,612.355C919.984,614.658 917.881,616.245 915.488,616.245L795.854,616.206L816.066,547.876L793.676,554.803L798.465,538.559L820.863,531.624L849.265,435.635C849.924,433.333 852.031,431.748 854.425,431.753L884.719,431.753C886.942,431.753 888.742,433.556 888.742,435.778C888.742,436.153 888.689,436.527 888.585,436.889L864.681,518.022L887.07,511.065L882.282,527.309L859.868,534.283L845.296,583.726L923.495,583.726C925.722,583.726 927.526,585.532 927.526,587.759C927.526,588.134 927.473,588.508 927.369,588.869M781.724,388.875C745.921,388.875 716.898,417.899 716.898,453.701L716.898,670.43L933.618,670.43C969.421,670.43 998.445,641.406 998.445,605.602L998.445,388.875L781.724,388.875Z" style="fill:rgb(78,123,190);fill-rule:nonzero;"/>
            </g>
            <g transform="matrix(1,0,0,1,0,4563.67)">
                <path d="M1049.5,668.221L1066.78,528.092C1066.91,526.932 1067.84,526.03 1069,526.033L1079.1,526.033C1080.34,526.033 1081.12,526.686 1080.96,528.092L1065.08,656.688C1065.06,656.914 1065.14,657.136 1065.3,657.3C1065.4,657.427 1065.55,657.505 1065.71,657.512L1122.26,657.512C1123.63,657.521 1124.09,658.202 1123.91,659.572L1122.88,668.221C1122.73,669.439 1121.82,670.295 1120.65,670.291L1051.33,670.291C1050.09,670.291 1049.33,669.439 1049.5,668.221" style="fill:rgb(78,123,190);fill-rule:nonzero;"/>
            </g>
            <g transform="matrix(1,0,0,1,0,4563.67)">
                <path d="M1137.67,668.226L1154.97,528.097C1155.1,526.937 1155.87,526.038 1157.2,526.038L1167.3,526.038C1168.66,526.03 1169.3,526.729 1169.16,528.097L1151.91,668.226C1151.78,669.464 1150.86,670.3 1149.69,670.296L1139.59,670.296C1138.29,670.296 1137.52,669.539 1137.67,668.226" style="fill:rgb(78,123,190);fill-rule:nonzero;"/>
            </g>
            <g transform="matrix(1,0,0,1,0,4563.74)">
                <path d="M1268.94,528.023L1267.69,536.684C1267.54,537.875 1266.78,538.762 1265.64,538.744L1232.88,538.744C1232.29,538.762 1232.12,539.046 1232.06,539.612L1216.19,668.152C1216.19,668.7 1215.96,669.224 1215.57,669.599C1215.13,670.025 1214.53,670.25 1213.92,670.223L1203.82,670.223C1202.44,670.223 1201.9,669.533 1202.17,668.152L1217.84,539.612C1217.92,539.046 1217.63,538.788 1217.21,538.788L1185.69,538.788C1185.15,538.782 1184.67,538.571 1184.34,538.165C1184,537.768 1183.98,537.251 1184.04,536.728L1185.06,528.068C1185.17,527.015 1186.12,526.006 1187.29,526.008L1267.04,526.008C1268.37,526.013 1269.12,526.655 1268.94,528.023" style="fill:rgb(78,123,190);fill-rule:nonzero;"/>
            </g>
            <g transform="matrix(1,0,0,1,0,4563.71)">
                <path d="M1358.58,538.773L1298.61,538.773C1298.02,538.792 1297.8,539.075 1297.74,539.641L1291.35,590.748C1291.28,591.281 1291.51,591.572 1292.18,591.572L1332.57,591.572C1333.94,591.572 1334.4,592.206 1334.22,593.632L1333.19,602.292C1333.04,603.463 1332.3,604.351 1330.96,604.352L1290.57,604.352C1290.05,604.351 1289.81,604.577 1289.75,605.176L1283.36,656.694C1283.29,657.18 1283.56,657.52 1283.98,657.517L1343.95,657.517C1344.58,657.52 1345.24,657.79 1345.47,658.049C1345.7,658.308 1345.9,658.71 1345.8,659.577L1344.77,668.227C1344.69,669.394 1343.72,670.3 1342.55,670.297L1269.56,670.297C1268.32,670.297 1267.54,669.589 1267.7,668.227L1285.01,528.053C1285.14,526.78 1286.03,526.006 1287.23,525.994L1360.18,525.994C1361.49,525.986 1362.01,526.591 1361.83,528.053L1360.81,536.713C1360.64,537.961 1359.88,538.773 1358.58,538.773" style="fill:rgb(78,123,190);fill-rule:nonzero;"/>
            </g>
            <g transform="matrix(1,0,0,1,0,4563.67)">
                <path d="M1370.31,662.767C1363.85,656.66 1360.63,648.315 1360.63,637.732C1360.63,636.496 1360.76,634.392 1361.04,631.341L1369.29,564.784C1370.66,552.553 1375.48,542.762 1383.76,535.407C1392.03,528.053 1402.3,524.379 1414.56,524.386C1425.69,524.386 1434.49,527.444 1440.94,533.559C1447.4,539.675 1450.63,547.949 1450.63,558.383C1450.63,559.63 1450.48,561.622 1450.22,564.362L1450,566.22C1449.86,567.22 1448.93,568.24 1447.74,568.28L1437.44,568.692C1436.37,568.722 1435.5,568.127 1435.59,567.3C1435.56,567.145 1435.99,563.949 1435.99,563.949C1436.16,562.516 1436.23,561.073 1436.2,559.63C1436.2,552.758 1434.1,547.295 1429.91,543.244C1425.72,539.192 1420.05,537.166 1412.91,537.166C1404.94,537.166 1398.26,539.604 1392.87,544.48C1387.49,549.355 1384.36,555.845 1383.5,563.949L1375.05,632.378C1374.89,633.744 1374.82,635.12 1374.85,636.496C1374.85,643.361 1376.91,648.856 1381.03,652.982C1385.15,657.108 1390.78,659.168 1397.93,659.161C1405.31,659.353 1412.49,656.699 1417.97,651.747C1423.44,646.694 1426.85,639.795 1427.54,632.378L1427.9,629.323C1428.04,628.219 1429.07,627.573 1430.18,627.634L1440.27,628.247C1441.55,628.302 1442.1,628.719 1441.95,630.021L1441.72,631.754C1440.34,643.843 1435.52,653.565 1427.25,660.919C1418.98,668.273 1408.71,671.947 1396.44,671.94C1385.48,671.94 1376.77,668.882 1370.31,662.767" style="fill:rgb(78,123,190);fill-rule:nonzero;"/>
            </g>
            <g transform="matrix(1,0,0,1,0,4563.67)">
                <path d="M1515.9,651.323C1521.47,646.128 1524.81,639.26 1525.92,630.718L1533.96,566.019C1534.11,564.51 1534.18,562.994 1534.16,561.477C1534.16,554.056 1532.03,548.149 1527.77,543.755C1523.51,539.361 1517.73,537.165 1510.44,537.165C1502.82,536.979 1495.45,539.831 1489.93,545.09C1484.37,550.389 1481.11,557.365 1480.15,566.019L1472.11,630.718C1471.95,632.225 1471.88,633.743 1471.91,635.26C1471.91,642.54 1474.04,648.343 1478.29,652.67C1482.54,656.996 1488.25,659.16 1495.4,659.16C1503,659.355 1510.37,656.538 1515.9,651.323M1467.47,662.354C1460.95,655.965 1457.69,647.431 1457.69,636.751C1457.69,635.378 1457.82,633.182 1458.1,630.161L1465.89,566.487C1467.37,553.87 1472.35,543.703 1480.83,535.985C1489.3,528.267 1499.66,524.401 1511.89,524.386C1523.02,524.386 1531.88,527.614 1538.47,534.07C1545.06,540.527 1548.35,549.113 1548.35,559.83C1548.35,561.21 1548.22,563.403 1547.94,566.431L1540.15,630.105C1538.67,642.611 1533.65,652.707 1525.11,660.395C1516.57,668.083 1506.18,671.932 1493.94,671.939C1482.83,671.939 1474.01,668.745 1467.47,662.354" style="fill:rgb(78,123,190);fill-rule:nonzero;"/>
            </g>
            <g transform="matrix(1,0,0,1,0,4563.67)">
                <path d="M1556.6,668.225L1573.91,528.096C1574.01,526.823 1574.97,526.034 1576.14,526.037L1586.24,526.037C1587.47,526.037 1588.23,526.681 1588.08,528.096L1570.82,668.225C1570.69,669.472 1569.9,670.293 1568.59,670.295L1558.48,670.295C1557.22,670.295 1556.44,669.556 1556.6,668.225" style="fill:rgb(78,123,190);fill-rule:nonzero;"/>
            </g>
            <g transform="matrix(1,0,0,1,0,4563.67)">
                <path d="M1594.27,668.226L1611.58,528.097C1611.67,526.934 1612.64,526.035 1613.8,526.038L1623.9,526.038C1625.27,526.038 1625.71,526.342 1626.13,527.485L1666.52,636.089C1666.94,637.118 1667.48,636.636 1667.55,635.877L1680.74,528.097C1680.96,526.483 1681.98,526.03 1683.01,526.038L1693.41,526.038C1694.79,526.038 1695.24,526.682 1695.07,528.097L1677.93,668.226C1677.85,669.394 1676.88,670.3 1675.71,670.296L1665.2,670.296C1663.96,670.296 1663.51,669.812 1663.14,668.849L1622.71,559.834C1622.43,559.122 1621.78,559.377 1621.67,560.246L1608.48,668.226C1608.4,669.394 1607.43,670.3 1606.26,670.296L1596.12,670.296C1594.88,670.296 1594.12,669.501 1594.27,668.226" style="fill:rgb(78,123,190);fill-rule:nonzero;"/>
            </g>
            <g transform="matrix(1,0,0,1,0,4896.14)">
                <path d="M1139.86,460.969C1143.61,457.97 1146.29,454.182 1148.08,449.085C1149.44,445.238 1150.57,439.518 1151.47,431.93C1152.14,426.608 1152.49,422.192 1152.53,418.681C1152.54,416.87 1152.51,415.567 1152.41,414.774C1151.86,409.677 1150.04,405.629 1146.96,402.628C1143.88,399.629 1139.95,398.126 1135.16,398.126C1130.37,398.126 1126.12,399.629 1122.42,402.628C1118.72,405.629 1115.93,409.677 1114.04,414.774C1112.78,418.51 1111.7,424.23 1110.8,431.93C1110.14,437.025 1109.79,441.385 1109.75,445.009C1109.73,446.935 1109.77,448.295 1109.86,449.085C1110.32,454.182 1112.08,458.232 1115.16,461.231C1118.24,464.232 1122.1,465.528 1126.99,465.528C1131.68,465.528 1136.11,463.97 1139.86,460.969M1108.11,469.978C1103.47,465.79 1100.62,460.015 1099.58,452.653C1099.3,450.274 1099.18,447.557 1099.21,444.499C1099.24,441.102 1099.54,436.855 1100.11,431.76C1101.11,423.155 1102.61,416.247 1104.6,411.036C1107.33,403.79 1111.54,398.071 1117.24,393.88C1122.94,389.692 1129.41,387.594 1136.65,387.594C1143.68,387.594 1149.49,389.692 1154.08,393.88C1158.68,398.071 1161.5,403.733 1162.54,410.866C1162.93,413.019 1163.11,415.681 1163.07,418.85C1163.05,421.342 1162.69,425.645 1162.02,431.76C1160.91,440.82 1159.41,447.785 1157.52,452.653C1154.79,460.015 1150.6,465.79 1144.96,469.978C1139.31,474.169 1132.91,476.263 1125.78,476.263C1118.65,476.263 1112.76,474.169 1108.11,469.978" style="fill:rgb(78,123,190);fill-rule:nonzero;"/>
            </g>
            <g transform="matrix(1,0,0,1,0,4897.33)">
                <path d="M1227.44,387.764L1234.93,387.764C1235.92,387.763 1236.38,388.535 1236.29,389.462L1226.25,472.016C1226.12,473.108 1225.47,473.714 1224.55,473.714L1217.06,473.714C1216.14,473.714 1215.58,473.097 1215.7,472.016L1216.64,464.979C1216.72,464.463 1216.61,464.284 1216.4,464.203C1216.09,464.088 1215.84,464.503 1215.8,464.569C1210.84,471.461 1203.87,474.904 1194.88,474.904C1188.15,474.904 1182.62,472.809 1178.28,468.619C1173.94,464.43 1171.81,458.596 1171.89,451.123C1171.9,450.331 1172.02,448.915 1172.24,446.877L1179.11,389.462C1179.21,388.324 1179.89,387.764 1180.81,387.764L1188.46,387.764C1189.47,387.764 1189.81,388.167 1189.66,389.462L1183.14,443.308C1183.02,444.103 1182.96,445.292 1182.94,446.877C1182.89,452.312 1183.66,456.353 1186.33,459.466C1189,462.582 1193.4,463.646 1198.29,463.646C1202.42,463.646 1206.68,461.746 1209.56,459.3C1216.19,453.679 1218.31,445.725 1219.31,438.979C1220.31,432.235 1225.74,389.462 1225.74,389.462C1225.87,388.2 1226.52,387.764 1227.44,387.764" style="fill:rgb(78,123,190);fill-rule:nonzero;"/>
            </g>
            <g transform="matrix(1,0,0,1,0,4894.96)">
                <path d="M1298.48,395.577C1302.51,399.993 1304.49,405.996 1304.41,413.583C1304.4,414.49 1304.28,416.074 1304.05,418.339L1297.35,474.393C1297.24,475.51 1296.57,476.092 1295.65,476.092L1288.01,476.092C1287.04,476.076 1286.67,475.46 1286.8,474.393L1293.33,420.717C1293.44,419.925 1293.5,418.793 1293.52,417.32C1293.57,411.883 1292.22,407.552 1289.45,404.324C1286.68,401.098 1283.06,399.634 1278.27,399.634C1272.77,399.634 1268.15,402.406 1264.34,406.255C1260.53,410.105 1257.88,416.918 1257.33,421.184C1256.78,425.451 1250.73,474.393 1250.73,474.393C1250.66,474.838 1250.56,475.242 1250.26,475.582C1249.95,475.921 1249.54,476.092 1249.03,476.092L1241.54,476.092C1240.62,476.092 1240.04,475.424 1240.18,474.393L1250.21,391.84C1250.34,390.642 1251,390.14 1251.91,390.14L1259.4,390.14C1260.17,390.146 1260.91,390.639 1260.76,391.84L1259.92,399.143C1259.89,399.383 1259.91,399.645 1260.05,399.708C1260.17,399.765 1260.33,399.758 1260.53,399.484C1263.01,395.975 1266.07,393.342 1269.71,391.585C1273.34,389.83 1277.35,388.952 1281.74,388.952C1288.87,388.952 1294.45,391.161 1298.48,395.577" style="fill:rgb(78,123,190);fill-rule:nonzero;"/>
            </g>
            <g transform="matrix(1,0,0,1,0,4865.15)">
                <path d="M1363.93,462.924C1364.5,458.85 1364.77,454.884 1364.81,451.033C1364.85,447.864 1364.52,445.066 1363.84,442.12C1363.07,438.272 1361.47,435.185 1359.05,432.863C1356.63,430.543 1353.53,429.381 1349.76,429.381C1345.88,429.381 1342.35,430.254 1339.17,432.518C1335.99,434.784 1333.51,437.784 1331.74,441.52C1330.29,444.013 1329.11,446.845 1328.21,450.014C1327.31,453.186 1326.53,457.487 1325.86,462.924C1325.31,466.888 1325.01,470.737 1324.97,474.474C1324.94,477.531 1325.27,480.533 1325.95,483.477C1326.72,487.553 1328.07,490.459 1330.8,492.838C1333.53,495.215 1337.19,496.103 1341.26,496.117C1350.35,496.148 1356.64,487.935 1358.82,483.646C1360.84,479.658 1362.34,474.162 1363.93,462.924M1373.49,388.102C1373.8,387.763 1374.16,387.593 1374.57,387.593L1382.21,387.593C1383.23,387.593 1383.57,388.1 1383.42,389.292L1369.61,504.2C1369.39,505.333 1368.83,505.898 1367.91,505.898L1360.27,505.898C1359.86,505.898 1359.53,505.728 1359.28,505.389C1359.02,505.05 1359.01,504.726 1359.06,504.2C1359.06,504.2 1359.81,498.178 1359.87,497.553C1359.94,496.929 1359.98,496.699 1359.83,496.641C1359.67,496.586 1359.49,496.67 1359.29,496.896C1356.71,500.182 1353.67,502.73 1350.19,504.539C1346.7,506.35 1343.03,507.258 1339.15,507.258C1332.22,507.258 1326.66,505.219 1322.48,501.142C1318.29,497.065 1315.72,491.519 1314.78,484.496C1314.39,482.233 1314.22,479.459 1314.25,476.173C1314.3,472.21 1314.65,467.794 1315.31,462.924C1316.43,453.525 1317.88,446.505 1319.66,441.86C1322.28,434.614 1326.22,428.924 1331.46,424.789C1336.7,420.657 1342.83,418.589 1349.87,418.589C1353.74,418.589 1357.2,419.468 1360.23,421.222C1363.27,422.979 1365.69,425.497 1367.49,428.781C1367.79,429.35 1368.18,429.265 1368.26,428.611L1373.02,389.292C1373.07,388.799 1373.18,388.443 1373.49,388.102" style="fill:rgb(78,123,190);fill-rule:nonzero;"/>
            </g>
            <g transform="matrix(1,0,0,1,0,4896.14)">
                <path d="M1435.4,441.323C1435.74,439.122 1436.18,436.046 1436.71,432.097C1437.5,424.623 1438.03,419.018 1437.88,415.1C1437.7,410.459 1436.26,406.581 1433.49,403.465C1430.72,400.352 1426.99,398.543 1422.31,398.543C1417.51,398.543 1413.2,399.653 1409.5,402.711C1405.8,405.768 1403.21,409.676 1401.73,414.431C1401.1,416.244 1400.6,418.227 1400.22,420.377C1399.84,422.529 1399.32,426.38 1398.65,431.927C1397.76,438.61 1397.41,445.331 1397.54,449.422C1397.7,454.184 1398.82,457.323 1401.74,460.821C1404.49,464.125 1408.87,465.318 1413.56,465.318C1418.25,465.318 1422.91,463.213 1426.31,460.155C1429.7,457.098 1432.38,452.326 1433.55,448.996C1434.61,445.961 1435.24,442.341 1435.4,441.323M1443.43,388.952L1450.92,388.952C1451.94,388.957 1452.42,389.265 1452.28,390.65L1442.24,473.203C1442.1,474.292 1441.56,474.901 1440.54,474.903L1432.9,474.903C1432.49,474.903 1432.12,474.68 1431.91,474.393C1431.67,474.066 1431.63,473.754 1431.69,473.203C1431.69,473.203 1432.68,465.074 1432.74,464.621C1432.8,464.125 1432.81,463.789 1432.61,463.747C1432.44,463.71 1432.19,464.075 1431.96,464.402C1429.48,467.89 1426.89,470.377 1423.28,472.616C1419.53,474.936 1414.9,476.262 1410.11,476.262C1402.87,476.262 1397.06,473.629 1392.68,468.363C1388.31,463.097 1386.16,456.276 1386.25,447.894C1386.28,444.951 1386.79,439.686 1387.79,432.097C1388.35,427.001 1388.93,422.784 1389.53,419.443C1390.12,416.103 1390.89,413.018 1391.84,410.185C1394.15,403.505 1397.96,398.069 1403.25,393.878C1408.54,389.689 1414.55,387.593 1421.28,387.593C1430.55,387.593 1436.73,391.637 1439.8,400.131C1439.95,400.584 1440.01,400.743 1440.17,400.758C1440.48,400.787 1440.48,400.256 1440.61,399.486C1440.73,398.715 1441.53,392.119 1441.73,390.65C1441.93,389.183 1442.59,388.952 1443.43,388.952" style="fill:rgb(78,123,190);fill-rule:nonzero;"/>
            </g>
            <g transform="matrix(1,0,0,1,0,4874.31)">
                <path d="M1497.73,487.427C1497.74,489.085 1497.73,492.104 1497.72,492.862C1497.69,494.073 1497.76,494.937 1496.14,495.344C1493.27,496.071 1489.1,496.985 1484.85,496.911C1478.43,496.802 1473.74,495.769 1470.57,493.241C1467.3,490.634 1465.1,485.563 1465.45,480.265C1465.52,479.248 1465.58,477.606 1465.81,475.339L1472.34,421.492C1472.4,421.019 1472.14,420.814 1471.73,420.814L1462.89,420.814C1461.87,420.814 1461.56,420.203 1461.68,419.114L1462.36,412.489C1462.46,411.504 1462.74,410.791 1464.06,410.791L1473.06,410.791C1473.47,410.791 1473.62,410.54 1473.66,410.204L1476.03,390.408C1476.17,389.279 1476.81,388.709 1477.73,388.709L1485.06,388.709C1485.44,388.72 1485.8,388.879 1486.05,389.218C1486.3,389.558 1486.34,389.824 1486.27,390.408L1483.92,410.111C1483.88,410.538 1484.01,410.787 1484.37,410.791L1503.61,410.791C1504.71,410.825 1504.92,411.249 1504.81,412.489C1504.81,412.489 1504.24,418.024 1504.12,419.271C1504.03,420.261 1503.38,420.797 1502.43,420.814L1483.2,420.814C1482.79,420.814 1482.63,421.023 1482.58,421.492C1482.58,421.492 1476.36,470.959 1476.21,475.17C1476.07,479.244 1475.98,482.166 1478.94,484.492C1482.44,487.241 1490.96,486.011 1496.2,485.08C1497.26,484.892 1497.71,485.767 1497.73,486.623L1497.73,487.427" style="fill:rgb(78,123,190);fill-rule:nonzero;"/>
            </g>
            <g transform="matrix(1,0,0,1,0,4864.35)">
                <path d="M1519.48,405.853C1518.12,404.325 1517.45,402.371 1517.48,399.992C1517.51,396.935 1518.48,394.361 1520.39,392.264C1522.29,390.171 1524.52,389.122 1527.07,389.122C1529.21,389.122 1530.96,389.86 1532.32,391.33C1533.68,392.803 1534.35,394.786 1534.32,397.275C1534.29,400.333 1533.35,402.91 1531.49,405.003C1529.63,407.101 1527.38,408.146 1524.73,408.146C1522.59,408.146 1520.84,407.382 1519.48,405.853M1507.4,504.827L1517.43,422.274C1517.54,421.133 1518.21,420.576 1519.13,420.576L1526.62,420.576C1527.13,420.576 1527.51,420.745 1527.77,421.085C1528.01,421.425 1528.06,421.671 1527.98,422.274L1517.94,504.827C1517.81,505.957 1517.16,506.526 1516.25,506.526L1508.75,506.526C1507.84,506.526 1507.27,505.901 1507.4,504.827" style="fill:rgb(78,123,190);fill-rule:nonzero;"/>
            </g>
            <g transform="matrix(1,0,0,1,0,4896.14)">
                <path d="M1574.92,461.23C1578.67,458.231 1581.44,454.181 1583.22,449.084C1584.59,445.236 1585.72,439.516 1586.61,431.929C1587.28,426.607 1587.63,422.191 1587.67,418.679C1587.69,416.869 1587.65,415.566 1587.56,414.772C1587,409.676 1585.18,405.628 1582.1,402.627C1579.03,399.628 1575.09,398.126 1570.3,398.126C1565.51,398.126 1561.27,399.628 1557.57,402.627C1553.87,405.628 1551.07,409.676 1549.19,414.772C1547.92,418.509 1546.85,424.229 1545.95,431.929C1545.28,437.024 1544.93,441.384 1544.89,445.008C1544.87,446.934 1544.91,448.294 1545.01,449.084C1545.46,454.181 1547.23,458.231 1550.31,461.23C1553.38,464.231 1557.37,465.73 1562.26,465.73C1566.94,465.73 1571.16,464.231 1574.92,461.23M1543.26,469.977C1538.61,465.79 1535.77,460.014 1534.73,452.651C1534.44,450.274 1534.32,447.556 1534.35,444.498C1534.39,441.101 1534.68,436.855 1535.25,431.758C1536.26,423.154 1537.76,416.245 1539.75,411.036C1542.47,403.789 1546.69,398.07 1552.39,393.879C1558.09,389.691 1564.55,387.594 1571.79,387.594C1578.82,387.594 1584.63,389.691 1589.23,393.879C1593.82,398.07 1596.64,403.732 1597.69,410.865C1598.07,413.018 1598.25,415.68 1598.22,418.849C1598.19,421.341 1597.84,425.644 1597.16,431.758C1596.05,440.819 1594.55,447.784 1592.67,452.651C1589.94,460.014 1585.75,465.79 1580.1,469.977C1574.45,474.168 1568.06,476.262 1560.93,476.262C1553.79,476.262 1547.9,474.168 1543.26,469.977" style="fill:rgb(78,123,190);fill-rule:nonzero;"/>
            </g>
            <g transform="matrix(1,0,0,1,0,4894.96)">
                <path d="M1662.21,395.577C1666.24,399.993 1668.22,405.996 1668.14,413.583C1668.13,414.49 1668.01,416.074 1667.78,418.339L1660.87,474.393C1660.76,475.481 1660.09,476.092 1659.17,476.092L1651.53,476.092C1650.8,476.092 1650.2,475.521 1650.33,474.393C1650.52,472.712 1657.06,420.717 1657.06,420.717C1657.17,419.925 1657.23,418.793 1657.25,417.32C1657.3,411.883 1655.95,407.552 1653.18,404.324C1650.41,401.098 1646.63,399.484 1641.84,399.484C1636.34,399.484 1631.68,401.41 1627.87,405.259C1624.05,409.11 1621.93,413.208 1620.98,420.377C1619.17,434.016 1614.45,474.393 1614.45,474.393C1614.39,474.915 1614.29,475.242 1613.98,475.582C1613.67,475.921 1613.26,476.092 1612.76,476.092L1605.26,476.092C1604.35,476.092 1603.77,475.51 1603.9,474.393L1613.94,391.84C1614.06,390.692 1614.72,390.14 1615.64,390.14L1623.13,390.14C1623.64,390.14 1624.02,390.311 1624.28,390.65C1624.52,390.99 1624.55,391.315 1624.49,391.84L1623.65,399.143C1623.61,399.524 1624.01,399.807 1624.2,399.534C1626.69,396.025 1629.8,393.342 1633.44,391.585C1637.07,389.83 1641.08,388.952 1645.47,388.952C1652.6,388.952 1658.18,391.161 1662.21,395.577" style="fill:rgb(78,123,190);fill-rule:nonzero;"/>
            </g>
            <g transform="matrix(1,0,0,1,0,4864.05)">
                <path d="M1034.08,507.131C1033.59,507.131 1033.19,506.956 1032.88,506.565C1032.62,506.241 1032.54,505.901 1032.62,505.113L1046.72,390.736C1046.79,390.092 1046.91,389.794 1047.26,389.408C1047.62,389.014 1048.04,388.815 1048.53,388.815L1118.54,388.815C1119.13,388.815 1119.58,389.02 1119.89,389.429C1120.18,389.835 1120.22,390.258 1120.15,390.831L1119.32,397.867C1119.16,399.198 1118.38,399.79 1117.37,399.79L1056.9,399.79C1056.71,399.79 1056.42,399.9 1056.38,400.306L1051.42,441.78C1051.38,442.042 1051.5,442.124 1051.75,442.148L1093.09,442.148C1093.64,442.148 1094.06,442.306 1094.31,442.617C1094.6,442.961 1094.68,443.478 1094.55,444.153L1093.65,451.343C1093.35,452.935 1092.42,453.265 1091.7,453.265L1050.36,453.265C1050.18,453.265 1050.06,453.294 1050.02,453.669L1043.6,505.208C1043.41,506.719 1042.37,507.131 1041.65,507.131L1034.08,507.131Z" style="fill:rgb(78,123,190);fill-rule:nonzero;"/>
            </g>
        </g>
    </g>
</svg>
