<svg width="28" height="28" viewBox="0 0 28 28" fill="none" xmlns="http://www.w3.org/2000/svg">
<path d="M14 0.666626C6.63999 0.666626 0.666656 6.63996 0.666656 14C0.666656 21.36 6.63999 27.3333 14 27.3333C21.36 27.3333 27.3333 21.36 27.3333 14C27.3333 6.63996 21.36 0.666626 14 0.666626ZM20.1867 9.73329C19.9867 11.84 19.12 16.96 18.68 19.32C18.4933 20.32 18.12 20.6533 17.7733 20.6933C17 20.76 16.4133 20.1866 15.6667 19.6933C14.4933 18.92 13.8267 18.44 12.6933 17.6933C11.3733 16.8266 12.2267 16.3466 12.9867 15.5733C13.1867 15.3733 16.6 12.2666 16.6667 11.9866C16.6759 11.9442 16.6747 11.9002 16.6631 11.8584C16.6514 11.8165 16.6298 11.7782 16.6 11.7466C16.52 11.68 16.4133 11.7066 16.32 11.72C16.2 11.7466 14.3333 12.9866 10.6933 15.44C10.16 15.8 9.67999 15.9866 9.25332 15.9733C8.77332 15.96 7.86666 15.7066 7.18666 15.48C6.34666 15.2133 5.69332 15.0666 5.74666 14.6C5.77332 14.36 6.10666 14.12 6.73332 13.8666C10.6267 12.1733 13.2133 11.0533 14.5067 10.52C18.2133 8.97329 18.9733 8.70662 19.48 8.70662C19.5867 8.70662 19.84 8.73329 20 8.86662C20.1333 8.97329 20.1733 9.11996 20.1867 9.22663C20.1733 9.30663 20.2 9.54663 20.1867 9.73329Z" fill="white"/>
</svg>
