<svg width="28" height="28" viewBox="0 0 28 28" fill="none" xmlns="http://www.w3.org/2000/svg">
<path d="M14 0.666626C6.6361 0.666626 0.666656 6.63607 0.666656 14C0.666656 21.3638 6.6361 27.3333 14 27.3333C21.3639 27.3333 27.3333 21.3638 27.3333 14C27.3333 6.63607 21.3639 0.666626 14 0.666626ZM19.4236 11.5888C19.4292 11.7027 19.4305 11.8166 19.4305 11.9277C19.4305 15.4 16.7903 19.4013 11.9597 19.4013C10.5323 19.4037 9.13466 18.9938 7.93471 18.2208C8.13888 18.2458 8.3486 18.2555 8.5611 18.2555C9.79166 18.2555 10.9236 17.8375 11.8222 17.1319C11.2746 17.1211 10.744 16.9398 10.3043 16.6132C9.86464 16.2865 9.53784 15.8309 9.36943 15.3097C9.76271 15.3845 10.1678 15.3688 10.5542 15.2638C9.95978 15.1437 9.42526 14.8216 9.04125 14.3523C8.65724 13.8829 8.44736 13.2953 8.44721 12.6888V12.6569C8.80138 12.8527 9.20693 12.9722 9.63749 12.9861C9.08027 12.6151 8.6858 12.0453 8.53477 11.3932C8.38374 10.7411 8.48756 10.0559 8.82499 9.47774C9.48465 10.2888 10.3073 10.9524 11.2397 11.4254C12.172 11.8984 13.1934 12.1703 14.2375 12.2236C14.1047 11.6601 14.1619 11.0686 14.4 10.5409C14.6381 10.0133 15.0439 9.57911 15.5543 9.30588C16.0646 9.03265 16.6509 8.93569 17.2221 9.03006C17.7932 9.12443 18.3172 9.40486 18.7125 9.82774C19.3002 9.71145 19.8638 9.49587 20.3792 9.19024C20.1833 9.79876 19.7731 10.3155 19.225 10.6444C19.7456 10.5817 20.254 10.4417 20.7333 10.2291C20.3812 10.7568 19.9377 11.2172 19.4236 11.5888Z" fill="white"/>
</svg>
